<svg xmlns="http://www.w3.org/2000/svg" viewBox="0 0 1120 430" role="img" aria-labelledby="title desc">
  <title id="title">患者扫码随访流程图</title>
  <desc id="desc">医生建档生成二维码，患者扫码进入随访页，确认知情同意并提交随访数据</desc>
  <defs>
    <linearGradient id="card" x1="0" y1="0" x2="1" y2="1">
      <stop offset="0" stop-color="#ffffff"/>
      <stop offset="1" stop-color="#eef6f7"/>
    </linearGradient>
    <filter id="shadow" x="-20%" y="-20%" width="140%" height="140%">
      <feDropShadow dx="0" dy="14" stdDeviation="15" flood-color="#20342e" flood-opacity="0.14"/>
    </filter>
  </defs>
  <rect width="1120" height="430" rx="30" fill="#f6f7f4"/>
  <g filter="url(#shadow)">
    <rect x="56" y="72" width="222" height="276" rx="22" fill="url(#card)" stroke="#d9ded6"/>
    <circle cx="167" cy="136" r="40" fill="#dbeafe"/>
    <path d="M145 135a22 22 0 1 0 44 0 22 22 0 0 0-44 0zm-39 86c18-31 42-47 72-47 30 0 54 16 72 47" fill="none" stroke="#2563eb" stroke-width="10" stroke-linecap="round"/>
    <text x="96" y="248" font-family="Microsoft YaHei, Arial" font-size="24" font-weight="800" fill="#1f2a24">医生建档</text>
    <text x="92" y="286" font-family="Microsoft YaHei, Arial" font-size="16" fill="#66736b">生成研究编号</text>
    <text x="92" y="314" font-family="Microsoft YaHei, Arial" font-size="16" fill="#66736b">生成随访链接</text>
  </g>
  <g filter="url(#shadow)">
    <rect x="338" y="72" width="222" height="276" rx="22" fill="url(#card)" stroke="#d9ded6"/>
    <rect x="396" y="104" width="106" height="106" rx="12" fill="#fff" stroke="#d9ded6"/>
    <g fill="#1f2a24">
      <rect x="413" y="121" width="24" height="24"/>
      <rect x="462" y="121" width="24" height="24"/>
      <rect x="413" y="170" width="24" height="24"/>
      <rect x="446" y="150" width="13" height="13"/>
      <rect x="466" y="170" width="18" height="18"/>
      <rect x="442" y="121" width="9" height="9"/>
      <rect x="413" y="151" width="12" height="12"/>
    </g>
    <text x="383" y="248" font-family="Microsoft YaHei, Arial" font-size="24" font-weight="800" fill="#1f2a24">二维码直达</text>
    <text x="376" y="286" font-family="Microsoft YaHei, Arial" font-size="16" fill="#66736b">随机长 token</text>
    <text x="376" y="314" font-family="Microsoft YaHei, Arial" font-size="16" fill="#66736b">无需手工输入</text>
  </g>
  <g filter="url(#shadow)">
    <rect x="620" y="72" width="222" height="276" rx="22" fill="url(#card)" stroke="#d9ded6"/>
    <rect x="688" y="96" width="86" height="148" rx="18" fill="#1f2a24"/>
    <rect x="700" y="116" width="62" height="104" rx="9" fill="#ffffff"/>
    <rect x="710" y="132" width="42" height="10" rx="5" fill="#bbf7d0"/>
    <rect x="710" y="153" width="42" height="10" rx="5" fill="#dbeafe"/>
    <rect x="710" y="174" width="42" height="10" rx="5" fill="#fef3c7"/>
    <circle cx="731" cy="229" r="5" fill="#9ca3af"/>
    <text x="676" y="276" font-family="Microsoft YaHei, Arial" font-size="24" font-weight="800" fill="#1f2a24">患者随访</text>
    <text x="658" y="314" font-family="Microsoft YaHei, Arial" font-size="16" fill="#66736b">知情同意后填写</text>
  </g>
  <g filter="url(#shadow)">
    <rect x="902" y="72" width="162" height="276" rx="22" fill="url(#card)" stroke="#d9ded6"/>
    <rect x="936" y="114" width="96" height="116" rx="14" fill="#ffffff" stroke="#d9ded6"/>
    <polyline points="954,200 972,182 988,188 1014,154" fill="none" stroke="#1f7a5c" stroke-width="7" stroke-linecap="round"/>
    <rect x="952" y="134" width="54" height="9" rx="4" fill="#dbeafe"/>
    <rect x="952" y="151" width="34" height="9" rx="4" fill="#fef3c7"/>
    <text x="930" y="276" font-family="Microsoft YaHei, Arial" font-size="24" font-weight="800" fill="#1f2a24">数据入库</text>
    <text x="928" y="314" font-family="Microsoft YaHei, Arial" font-size="16" fill="#66736b">医生查看趋势</text>
  </g>
  <g fill="none" stroke="#1f7a5c" stroke-width="6" stroke-linecap="round" stroke-linejoin="round">
    <path d="M288 210h38"/>
    <path d="M318 198l12 12-12 12"/>
    <path d="M570 210h38"/>
    <path d="M600 198l12 12-12 12"/>
    <path d="M852 210h38"/>
    <path d="M882 198l12 12-12 12"/>
  </g>
</svg>
