<svg xmlns="http://www.w3.org/2000/svg" viewBox="0 0 1120 640" role="img" aria-label="证据驾驶舱预览图">
  <defs>
    <linearGradient id="bg" x1="0" y1="0" x2="1" y2="1"><stop offset="0" stop-color="#0B4F6C"/><stop offset="1" stop-color="#0E8F6E"/></linearGradient>
    <filter id="glow" x="-30%" y="-30%" width="160%" height="160%"><feDropShadow dx="0" dy="0" stdDeviation="10" flood-color="#8EE6D1" flood-opacity=".45"/></filter>
  </defs>
  <rect width="1120" height="640" rx="34" fill="url(#bg)"/>
  <g opacity=".16" stroke="#fff"><path d="M0 120h1120M0 240h1120M0 360h1120M0 480h1120M160 0v640M320 0v640M480 0v640M640 0v640M800 0v640M960 0v640"/></g>
  <text x="64" y="72" font-family="Microsoft YaHei, Arial" font-size="34" font-weight="900" fill="#fff">真实世界证据驾驶舱</text>
  <text x="66" y="108" font-family="Microsoft YaHei, Arial" font-size="18" fill="#d9fff4">脱敏演示数据 · 随访观察趋势 · 待真实研究进一步验证</text>
  <g filter="url(#glow)" font-family="Microsoft YaHei, Arial">
    <g transform="translate(64 150)"><rect width="150" height="92" rx="18" fill="#ffffff" opacity=".94"/><text x="20" y="34" font-size="14" fill="#647268">建档患者</text><text x="20" y="70" font-size="34" font-weight="900" fill="#0B4F6C">120</text></g>
    <g transform="translate(236 150)"><rect width="150" height="92" rx="18" fill="#ffffff" opacity=".94"/><text x="20" y="34" font-size="14" fill="#647268">有效随访</text><text x="20" y="70" font-size="34" font-weight="900" fill="#0B4F6C">486</text></g>
    <g transform="translate(408 150)"><rect width="150" height="92" rx="18" fill="#ffffff" opacity=".94"/><text x="20" y="34" font-size="14" fill="#647268">完成率</text><text x="20" y="70" font-size="34" font-weight="900" fill="#0E8F6E">87.5%</text></g>
    <g transform="translate(580 150)"><rect width="150" height="92" rx="18" fill="#ffffff" opacity=".94"/><text x="20" y="34" font-size="14" fill="#647268">完整率</text><text x="20" y="70" font-size="34" font-weight="900" fill="#0E8F6E">93.2%</text></g>
    <g transform="translate(752 150)"><rect width="150" height="92" rx="18" fill="#ffffff" opacity=".94"/><text x="20" y="34" font-size="14" fill="#647268">不良事件</text><text x="20" y="70" font-size="34" font-weight="900" fill="#C8A45D">3</text></g>
    <g transform="translate(924 150)"><rect width="150" height="92" rx="18" fill="#ffffff" opacity=".94"/><text x="20" y="34" font-size="14" fill="#647268">已审核</text><text x="20" y="70" font-size="34" font-weight="900" fill="#0B4F6C">428</text></g>
  </g>
  <rect x="64" y="286" width="486" height="260" rx="22" fill="#fff" opacity=".94"/>
  <rect x="592" y="286" width="464" height="260" rx="22" fill="#fff" opacity=".94"/>
  <text x="100" y="330" font-family="Microsoft YaHei, Arial" font-size="22" font-weight="900" fill="#0B4F6C">量表随访趋势</text>
  <polyline points="104,476 174,450 244,428 314,410 384,390 504,372" fill="none" stroke="#0E8F6E" stroke-width="7" stroke-linecap="round"/>
  <polyline points="104,450 174,434 244,416 314,402 384,386 504,366" fill="none" stroke="#0B4F6C" stroke-width="7" stroke-linecap="round"/>
  <polyline points="104,504 174,488 244,468 314,454 384,438 504,420" fill="none" stroke="#C8A45D" stroke-width="7" stroke-linecap="round"/>
  <text x="632" y="330" font-family="Microsoft YaHei, Arial" font-size="22" font-weight="900" fill="#0B4F6C">患者画像与数据质控</text>
  <g transform="translate(650 366)" fill="#0E8F6E"><rect width="46" height="120" rx="10"/><rect x="68" y="72" width="46" height="48" rx="10"/><rect x="136" y="34" width="46" height="86" rx="10"/><rect x="204" y="54" width="46" height="66" rx="10"/></g>
  <polygon points="900,370 974,412 946,498 854,498 826,412" fill="#E8F8F2" stroke="#0B4F6C" stroke-width="4"/>
  <polygon points="900,392 948,420 932,476 868,476 852,420" fill="#0E8F6E" opacity=".62"/>
</svg>
